<svg width="223" height="198" viewBox="0 0 223 198" fill="none" xmlns="http://www.w3.org/2000/svg">
<path d="M0 196.33V170.937H5.60546C7.17518 170.902 8.74492 171.005 10.297 171.242C11.4669 171.385 12.6019 171.736 13.6481 172.28C14.5054 172.761 15.204 173.482 15.6587 174.355C16.1337 175.366 16.3633 176.474 16.329 177.59C16.3557 178.7 16.148 179.802 15.7197 180.825C15.3176 181.762 14.6367 182.55 13.7699 183.084C13.2852 183.492 12.7533 183.84 12.1858 184.122C11.5556 184.369 10.9025 184.553 10.2361 184.671L8.4082 184.976H2.7418V196.33H0ZM2.7418 182.901H5.11803C6.25448 182.965 7.39361 182.965 8.53005 182.901C9.45838 182.851 10.3685 182.623 11.2109 182.229C11.9283 181.892 12.5395 181.365 12.9779 180.703C13.3917 179.848 13.6004 178.907 13.5872 177.957C13.6049 177.143 13.4599 176.333 13.1607 175.576C12.8685 174.965 12.402 174.456 11.8202 174.111C11.1654 173.715 10.442 173.446 9.68771 173.318C8.71412 173.247 7.7367 173.247 6.76311 173.318H2.7418V182.901Z" fill="#132F57"/>
<path d="M25.0439 196.329V170.936H27.7857V181.74H39.9715V170.936H42.6524V196.329H40.0934V183.694H27.9076V196.329H25.0439Z" fill="#132F57"/>
<path d="M62.1486 170.936L70.6177 196.329H67.8759L65.3778 188.455H55.6901L53.1311 196.329H50.4502L58.9803 170.875L62.1486 170.936ZM64.7685 186.563L60.5644 173.683L56.2994 186.563H64.7685Z" fill="#132F57"/>
<path d="M80.7301 184.122V196.33H77.9883V170.937H84.0812C85.4081 170.907 86.7347 171.01 88.0416 171.242C89.1285 171.373 90.182 171.704 91.1489 172.219C91.9684 172.722 92.6573 173.412 93.1596 174.233C93.6858 175.205 93.9385 176.302 93.8907 177.407C93.8784 178.049 93.7758 178.686 93.5861 179.299C93.4491 179.957 93.1795 180.58 92.794 181.131C92.4026 181.706 91.9065 182.203 91.3317 182.596C90.7016 183.041 89.9667 183.314 89.1992 183.389C89.9684 183.499 90.7114 183.747 91.3927 184.122C91.9066 184.458 92.3261 184.92 92.6112 185.464C92.91 186.039 93.1157 186.657 93.2205 187.296C93.2865 188.027 93.2865 188.762 93.2205 189.493V190.958C93.2205 191.568 93.2205 192.24 93.2205 192.911C93.3271 193.55 93.4695 194.181 93.647 194.804C93.7759 195.268 94.0824 195.663 94.5 195.902H91.5145C91.182 195.294 90.9553 194.633 90.8443 193.949C90.8443 193.155 90.8443 192.423 90.4787 191.629V189.31C90.4787 188.577 90.4787 188.028 90.4787 187.54C90.4612 186.806 90.2044 186.099 89.7476 185.525C89.3251 185.026 88.7787 184.647 88.1634 184.427C87.4582 184.173 86.7185 184.029 85.97 183.999H83.411L80.7301 184.122ZM80.7301 182.168H85.6044H86.8839C87.5216 182.099 88.1412 181.913 88.7118 181.619C89.3733 181.251 89.9536 180.753 90.4178 180.154C90.9456 179.362 91.2022 178.419 91.1489 177.468C91.1666 176.679 91.0428 175.894 90.7834 175.149C90.498 174.588 90.0796 174.106 89.5648 173.745C88.9561 173.356 88.2697 173.106 87.5541 173.012C86.6226 172.911 85.6829 172.911 84.7514 173.012H80.7301V182.168Z" fill="#132F57"/>
<path d="M106.565 196.329H103.579V170.936H108.21L115.765 193.094L123.442 170.936H127.951V196.329H125.514V173.134L117.532 196.329H114.607L106.686 173.073L106.565 196.329Z" fill="#132F57"/>
<path d="M147.753 170.936L156.222 196.329H153.419L150.921 188.455H141.295L138.736 196.329H136.055L144.524 170.875L147.753 170.936ZM150.373 186.563L146.23 173.683L142.087 186.563H150.373Z" fill="#132F57"/>
<path d="M181.751 187.784C181.786 188.878 181.642 189.971 181.325 191.019C180.96 192.106 180.402 193.119 179.68 194.01C178.875 195.001 177.853 195.795 176.694 196.329C175.415 196.917 174.02 197.209 172.612 197.184C171.282 197.206 169.959 196.978 168.713 196.512C167.729 196.104 166.838 195.502 166.093 194.742C165.449 193.976 164.935 193.11 164.569 192.178C164.175 191.2 163.909 190.174 163.777 189.126C163.585 188.1 163.484 187.058 163.473 186.013C163.473 184.976 163.473 183.999 163.473 183.144C163.473 182.29 163.473 181.313 163.473 180.337C163.521 179.389 163.663 178.448 163.899 177.529C164.084 176.597 164.391 175.694 164.813 174.843C165.221 174.015 165.779 173.27 166.458 172.646C167.197 171.951 168.067 171.412 169.017 171.059C170.174 170.664 171.391 170.478 172.612 170.509C173.899 170.468 175.181 170.676 176.39 171.12C177.395 171.491 178.309 172.074 179.07 172.829C179.797 173.555 180.358 174.429 180.716 175.392C181.089 176.366 181.276 177.401 181.264 178.444H178.522C178.468 177.697 178.325 176.96 178.096 176.247C177.862 175.543 177.511 174.882 177.06 174.294C176.54 173.735 175.92 173.28 175.232 172.951C174.379 172.614 173.468 172.448 172.551 172.462C171.579 172.413 170.612 172.624 169.748 173.073C169.008 173.426 168.361 173.949 167.86 174.599C167.407 175.253 167.057 175.974 166.824 176.735C166.583 177.535 166.4 178.351 166.275 179.177C166.275 180.031 166.275 180.825 166.275 181.618C166.275 182.412 166.275 183.083 166.275 183.633C166.275 184.182 166.275 185.037 166.275 185.83C166.275 186.624 166.275 187.478 166.275 188.333C166.393 189.18 166.577 190.017 166.824 190.836C167.085 191.627 167.476 192.37 167.981 193.033C168.503 193.703 169.17 194.246 169.931 194.62C170.855 195.013 171.853 195.2 172.856 195.169C173.855 195.231 174.851 194.998 175.719 194.498C176.45 194.07 177.059 193.46 177.486 192.728C177.96 192.026 178.291 191.238 178.461 190.408C178.615 189.602 178.717 188.786 178.766 187.967L181.751 187.784Z" fill="#132F57"/>
<path d="M192.046 196.329V170.936H194.97V196.329H192.046Z" fill="#132F57"/>
<path d="M214.531 170.936L223 196.329H220.259L217.761 188.455H208.073L205.514 196.329H202.833L211.363 170.875L214.531 170.936ZM217.151 186.563L213.252 173.683L209.048 186.563H217.151Z" fill="#132F57"/>
<path d="M68.1794 58.0735C63.8934 55.7864 59.4313 53.8472 54.8359 52.2747C59.8711 73.1602 70.3892 92.3169 85.3004 107.76C92.0934 115.015 99.746 121.41 108.088 126.805C107.174 87.0676 86.0316 67.4737 68.1794 58.0735Z" fill="url(#paint0_linear_44_281)"/>
<path d="M161.277 48.734C163.287 47.9405 165.298 47.269 167.369 46.6586C168.257 41.3946 168.705 36.0657 168.71 30.7271C168.649 7.10459 154.757 1.00057 146.593 1.00057C138.494 0.826194 130.531 3.10237 123.744 7.53187C119.867 10.2436 115.306 11.8088 110.584 12.0488C105.884 11.7879 101.349 10.2241 97.4839 7.53187C90.6515 3.05248 82.6151 0.773468 74.4528 1.00057C66.2274 1.00057 52.3965 7.10459 52.3965 30.7271C52.4091 36.0629 52.8369 41.3895 53.676 46.6586C55.6866 47.269 57.6364 47.9405 59.7689 48.734C72.3548 53.1109 83.6225 60.6235 92.5119 70.5649C101.401 80.5063 107.62 92.5498 110.584 105.562C113.541 92.5657 119.744 80.5339 128.61 70.5945C137.476 60.655 148.716 53.1333 161.277 48.734ZM125.024 28.4076C120.924 31.003 116.164 32.3593 111.315 32.3142C105.948 32.2494 100.67 30.9327 95.8998 28.4686C95.6106 28.3094 95.3559 28.0944 95.1502 27.836C94.9444 27.5776 94.7919 27.2809 94.7012 26.9631C94.6106 26.6453 94.5837 26.3126 94.6221 25.9843C94.6605 25.656 94.7634 25.3386 94.9249 25.0504C95.2672 24.4877 95.8126 24.0787 96.4479 23.9082C97.0833 23.7378 97.7597 23.8189 98.3369 24.1348C102.035 26.0963 106.156 27.1218 110.34 27.1218C114.524 27.1218 118.645 26.0963 122.343 24.1348C122.899 23.8274 123.551 23.7437 124.167 23.9008C124.782 24.0578 125.315 24.4439 125.656 24.9804C125.998 25.5169 126.122 26.1635 126.005 26.7888C125.887 27.4141 125.537 27.9711 125.024 28.3466V28.4076Z" fill="url(#paint1_linear_44_281)"/>
<path d="M81.3985 111.239C65.1973 94.486 54.0826 73.465 49.3499 50.626C32.1679 45.8649 17.2403 46.5974 14.7422 48.1844C11.2693 52.4572 12.1832 75.8356 22.3584 98.6646C29.2433 113.925 45.5114 139.501 77.1944 139.501C87.2142 139.04 96.984 136.217 105.709 131.26C96.8141 125.614 88.6488 118.889 81.3985 111.239Z" fill="url(#paint2_linear_44_281)"/>
<path d="M171.637 50.626C164.386 83.847 144.297 112.839 115.765 131.26C124.515 136.209 134.303 139.031 144.34 139.501C175.841 139.501 192.048 113.925 199.176 98.6646C209.473 75.8966 210.326 52.4572 206.853 48.1844C203.746 46.5974 188.879 45.8649 171.637 50.626Z" fill="url(#paint3_linear_44_281)"/>
<path d="M135.991 107.76C150.903 92.3169 161.421 73.1602 166.456 52.2747C161.756 53.8311 157.191 55.7705 152.808 58.0735C134.956 67.5347 113.752 87.1286 113.082 126.927C121.485 121.518 129.181 115.08 135.991 107.76Z" fill="url(#paint4_linear_44_281)"/>
<defs>
<linearGradient id="paint0_linear_44_281" x1="55" y1="52" x2="108" y2="123" gradientUnits="userSpaceOnUse">
<stop stop-color="#3C9CD7"/>
<stop offset="1" stop-color="#132F57"/>
</linearGradient>
<linearGradient id="paint1_linear_44_281" x1="111" y1="106" x2="111" y2="1" gradientUnits="userSpaceOnUse">
<stop stop-color="#132F57"/>
<stop offset="1" stop-color="#3C9CD7"/>
</linearGradient>
<linearGradient id="paint2_linear_44_281" x1="13" y1="47" x2="101.5" y2="133.5" gradientUnits="userSpaceOnUse">
<stop stop-color="#3C9CD7"/>
<stop offset="1" stop-color="#132F57"/>
</linearGradient>
<linearGradient id="paint3_linear_44_281" x1="209" y1="43.5" x2="116" y2="128.5" gradientUnits="userSpaceOnUse">
<stop stop-color="#3C9CD7"/>
<stop offset="1" stop-color="#132F57"/>
</linearGradient>
<linearGradient id="paint4_linear_44_281" x1="166" y1="52" x2="113" y2="124" gradientUnits="userSpaceOnUse">
<stop stop-color="#3C9CD7"/>
<stop offset="1" stop-color="#132F57"/>
</linearGradient>
</defs>
</svg>
