<svg width="151" height="133" viewBox="0 0 151 133" fill="none" xmlns="http://www.w3.org/2000/svg">
<path d="M0 132.42V115.207H3.79562C4.85852 115.183 5.92144 115.253 6.97239 115.414C7.76457 115.51 8.53307 115.749 9.24151 116.117C9.82199 116.443 10.2951 116.932 10.603 117.524C10.9246 118.209 11.0801 118.96 11.0568 119.717C11.0749 120.469 10.9343 121.216 10.6442 121.91C10.372 122.545 9.9109 123.079 9.32402 123.441C8.99578 123.718 8.63565 123.954 8.25135 124.144C7.82463 124.312 7.3824 124.437 6.93113 124.517L5.69343 124.724H1.85655V132.42H0ZM1.85655 123.317H3.46557C4.23509 123.36 5.00642 123.36 5.77594 123.317C6.40454 123.283 7.02083 123.129 7.59124 122.862C8.07698 122.633 8.49085 122.275 8.78769 121.827C9.06792 121.247 9.20919 120.61 9.20025 119.965C9.21227 119.413 9.11408 118.865 8.91146 118.352C8.71364 117.938 8.39774 117.592 8.00381 117.358C7.56042 117.09 7.07055 116.907 6.55982 116.821C5.90058 116.773 5.23874 116.773 4.5795 116.821H1.85655V123.317Z" fill="white"/>
<path d="M16.958 132.42V115.206H18.8146V122.53H27.0659V115.206H28.8812V132.42H27.1484V123.854H18.8971V132.42H16.958Z" fill="white"/>
<path d="M42.0824 115.206L47.8171 132.42H45.9606L44.269 127.082H37.7092L35.9764 132.42H34.1611L39.9371 115.165L42.0824 115.206ZM43.8565 125.799L41.0098 117.068L38.1218 125.799H43.8565Z" fill="white"/>
<path d="M54.6642 124.144V132.42H52.8076V115.207H56.9333C57.8318 115.187 58.7301 115.256 59.615 115.414C60.351 115.503 61.0643 115.727 61.7191 116.076C62.2739 116.417 62.7405 116.885 63.0805 117.441C63.4369 118.1 63.608 118.844 63.5756 119.593C63.5673 120.028 63.4978 120.46 63.3693 120.875C63.2766 121.322 63.0941 121.744 62.833 122.117C62.568 122.507 62.2321 122.844 61.8428 123.11C61.4161 123.412 60.9185 123.597 60.3989 123.648C60.9197 123.722 61.4228 123.891 61.8841 124.144C62.2321 124.372 62.5162 124.686 62.7092 125.055C62.9115 125.444 63.0508 125.863 63.1218 126.296C63.1664 126.792 63.1664 127.29 63.1218 127.786V128.779C63.1218 129.192 63.1218 129.648 63.1218 130.103C63.1939 130.535 63.2904 130.964 63.4106 131.385C63.4979 131.7 63.7054 131.968 63.9882 132.13H61.9666C61.7414 131.718 61.588 131.27 61.5128 130.806C61.5128 130.268 61.5128 129.772 61.2652 129.234V127.661C61.2652 127.165 61.2652 126.793 61.2652 126.461C61.2534 125.964 61.0795 125.485 60.7702 125.096C60.4841 124.758 60.1141 124.501 59.6975 124.351C59.22 124.18 58.7191 124.082 58.2122 124.062H56.4795L54.6642 124.144ZM54.6642 122.82H57.9647H58.8311C59.2629 122.773 59.6824 122.647 60.0688 122.448C60.5167 122.198 60.9097 121.861 61.224 121.455C61.5814 120.918 61.7551 120.279 61.7191 119.634C61.731 119.099 61.6472 118.567 61.4715 118.062C61.2783 117.682 60.995 117.355 60.6464 117.11C60.2342 116.847 59.7695 116.677 59.2849 116.614C58.6542 116.545 58.0179 116.545 57.3871 116.614H54.6642V122.82Z" fill="white"/>
<path d="M72.1583 132.42H70.1367V115.206H73.2722L78.3881 130.227L83.5864 115.206H86.6394V132.42H84.9892V116.696L79.5845 132.42H77.6042L72.2408 116.655L72.1583 132.42Z" fill="white"/>
<path d="M100.048 115.206L105.783 132.42H103.885L102.194 127.082H95.675L93.9423 132.42H92.127L97.8616 115.165L100.048 115.206ZM101.822 125.799L99.0168 117.068L96.2114 125.799H101.822Z" fill="white"/>
<path d="M123.069 126.627C123.093 127.369 122.995 128.109 122.781 128.82C122.533 129.557 122.156 130.244 121.667 130.847C121.121 131.52 120.43 132.057 119.645 132.42C118.779 132.818 117.834 133.016 116.881 132.999C115.98 133.014 115.085 132.859 114.24 132.544C113.575 132.267 112.971 131.859 112.466 131.344C112.031 130.825 111.682 130.238 111.435 129.606C111.168 128.943 110.988 128.247 110.899 127.537C110.769 126.841 110.7 126.135 110.692 125.427C110.692 124.723 110.692 124.061 110.692 123.482C110.692 122.903 110.692 122.241 110.692 121.579C110.725 120.936 110.822 120.298 110.981 119.675C111.106 119.044 111.314 118.431 111.6 117.855C111.876 117.293 112.254 116.788 112.714 116.365C113.214 115.894 113.804 115.529 114.447 115.289C115.23 115.022 116.054 114.896 116.881 114.917C117.752 114.889 118.62 115.03 119.439 115.331C120.12 115.582 120.739 115.977 121.254 116.489C121.746 116.981 122.126 117.574 122.368 118.227C122.621 118.887 122.747 119.589 122.739 120.296H120.883C120.846 119.79 120.749 119.289 120.594 118.806C120.436 118.329 120.198 117.881 119.893 117.482C119.54 117.104 119.121 116.795 118.655 116.572C118.077 116.344 117.46 116.231 116.84 116.241C116.182 116.208 115.527 116.35 114.942 116.655C114.441 116.894 114.003 117.249 113.663 117.689C113.356 118.133 113.12 118.621 112.961 119.137C112.799 119.68 112.675 120.233 112.59 120.793C112.59 121.372 112.59 121.91 112.59 122.448C112.59 122.986 112.59 123.441 112.59 123.813C112.59 124.185 112.59 124.765 112.59 125.303C112.59 125.841 112.59 126.42 112.59 126.999C112.67 127.573 112.794 128.141 112.961 128.696C113.138 129.232 113.403 129.736 113.745 130.185C114.099 130.639 114.55 131.007 115.066 131.261C115.691 131.527 116.367 131.654 117.046 131.633C117.723 131.675 118.397 131.517 118.985 131.178C119.48 130.888 119.892 130.475 120.181 129.978C120.502 129.503 120.726 128.968 120.842 128.406C120.946 127.859 121.015 127.306 121.048 126.751L123.069 126.627Z" fill="white"/>
<path d="M130.04 132.42V115.206H132.02V132.42H130.04Z" fill="white"/>
<path d="M145.265 115.206L151 132.42H149.143L147.452 127.082H140.892L139.159 132.42H137.344L143.12 115.165L145.265 115.206ZM147.039 125.799L144.399 117.068L141.552 125.799H147.039Z" fill="white"/>
<path d="M46.1661 38.699C43.2639 37.1486 40.2425 35.8341 37.1309 34.7681C40.5403 48.9259 47.6624 61.9119 57.7592 72.3806C62.359 77.2982 67.5407 81.6337 73.1893 85.2905C72.5704 58.3535 58.2543 45.0712 46.1661 38.699Z" fill="white"/>
<path d="M109.205 32.368C110.567 31.8301 111.928 31.3749 113.331 30.9611C113.932 27.3928 114.236 23.7804 114.239 20.1615C114.197 4.14827 104.791 0.0104824 99.2624 0.0104824C93.7787 -0.107724 88.3869 1.43525 83.7911 4.43791C81.1655 6.27616 78.0776 7.33717 74.8797 7.49988C71.6972 7.32302 68.6263 6.26295 66.0095 4.43791C61.383 1.40143 55.9413 -0.143466 50.4144 0.0104824C44.8448 0.0104824 35.4795 4.14827 35.4795 20.1615C35.488 23.7785 35.7777 27.3893 36.3459 30.9611C37.7074 31.3749 39.0276 31.8301 40.4716 32.368C48.9939 35.335 56.6235 40.4276 62.6428 47.1667C68.662 53.9058 72.8731 62.0698 74.8797 70.8908C76.8822 62.0806 81.0821 53.9245 87.0858 47.1868C93.0894 40.449 100.7 35.3502 109.205 32.368ZM84.6575 18.5891C81.8814 20.3485 78.6585 21.2679 75.3748 21.2373C71.7408 21.1934 68.167 20.3009 64.9368 18.6305C64.741 18.5226 64.5685 18.3768 64.4292 18.2016C64.2899 18.0265 64.1866 17.8254 64.1252 17.6099C64.0639 17.3945 64.0456 17.169 64.0716 16.9464C64.0976 16.7239 64.1673 16.5087 64.2767 16.3134C64.5085 15.932 64.8778 15.6547 65.308 15.5391C65.7382 15.4236 66.1962 15.4785 66.5871 15.6927C69.091 17.0224 71.8813 17.7175 74.7147 17.7175C77.548 17.7175 80.3383 17.0224 82.8422 15.6927C83.2188 15.4843 83.6603 15.4276 84.0771 15.534C84.4938 15.6405 84.8545 15.9022 85.0857 16.2659C85.317 16.6296 85.4014 17.0679 85.3218 17.4918C85.2423 17.9157 85.0048 18.2933 84.6575 18.5478V18.5891Z" fill="white"/>
<path d="M55.1173 74.7387C44.147 63.3823 36.6209 49.1326 33.4162 33.6505C21.7818 30.4231 11.6739 30.9196 9.9824 31.9954C7.63076 34.8919 8.24962 50.7396 15.1395 66.2149C19.8015 76.5594 30.8171 93.8967 52.2706 93.8967C59.0552 93.5845 65.6706 91.6706 71.5787 88.3107C65.5556 84.4833 60.0267 79.9249 55.1173 74.7387Z" fill="white"/>
<path d="M116.22 33.6505C111.31 56.1704 97.7077 75.8234 78.3877 88.3107C84.3129 91.6653 90.9404 93.5786 97.7371 93.8967C119.067 93.8967 130.041 76.5594 134.868 66.2149C141.841 50.781 142.418 34.8919 140.067 31.9954C137.962 30.9196 127.896 30.4231 116.22 33.6505Z" fill="white"/>
<path d="M92.0838 72.3806C102.181 61.9119 109.303 48.9259 112.712 34.7681C109.53 35.8231 106.439 37.1378 103.471 38.699C91.3825 45.1125 77.0251 58.3948 76.5713 85.3732C82.2612 81.7068 87.4724 77.3422 92.0838 72.3806Z" fill="white"/>
</svg>
