<svg width="44" height="65" viewBox="0 0 44 65" fill="none" xmlns="http://www.w3.org/2000/svg">
<path d="M22.0013 0C9.90817 0 0 10.2167 0 22.6862C0 27.517 1.49223 32.0072 4.01783 35.6986L19.316 63.0459C21.4588 65.9404 22.8831 65.3905 24.6651 62.8932L41.5379 33.1993C41.8786 32.5617 42.1457 31.8824 42.3789 31.1895C43.4497 28.4913 44.0004 25.6028 44 22.6862C44 10.2167 34.0937 0 22.0013 0ZM22.0013 10.6301C28.5126 10.6301 33.6908 15.9718 33.6908 22.6862C33.6908 29.4007 28.5126 34.7398 22.0013 34.7398C15.4893 34.7398 10.3092 29.4001 10.3092 22.6862C10.3092 15.9718 15.4893 10.6301 22.0006 10.6301H22.0013Z" fill="#134F6B"/>
</svg>
