<svg width="29" height="41" viewBox="0 0 29 41" fill="none" xmlns="http://www.w3.org/2000/svg">
<path d="M3.05352 22.2672L3.04208 22.2475L3.02889 22.2288C1.43846 19.9809 0.5 17.2488 0.5 14.3098C0.5 6.72187 6.73762 0.5 14.3508 0.5C21.9635 0.5 28.2 6.72181 28.2 14.3098V14.3099C28.2002 16.0844 27.8538 17.8419 27.18 19.4836L27.1749 19.4962L27.1704 19.5091C27.0242 19.9291 26.8616 20.3269 26.6595 20.6938L15.6707 39.3951C15.3969 39.7642 15.1537 40.0377 14.9306 40.2224C14.7046 40.4095 14.5267 40.4827 14.3822 40.4972C14.1167 40.5239 13.6918 40.3645 13.0157 39.4888L3.05352 22.2672ZM22.4756 14.3098C22.4756 9.79716 18.8729 6.20514 14.3508 6.20514H14.3504C9.8284 6.20514 6.22441 9.79706 6.22441 14.3098C6.22441 18.8223 9.82854 22.4129 14.3508 22.4129C18.8728 22.4129 22.4756 18.8226 22.4756 14.3098Z" fill="white" stroke="#13B7AA"/>
</svg>
